<svg xmlns="http://www.w3.org/2000/svg" viewBox="0 0 302.41 73.09"><defs><style>.cls-1{fill:#fff;}</style></defs><g id="Layer_2" data-name="Layer 2"><g id="Layer_1-2" data-name="Layer 1"><path class="cls-1" d="M.08,50.62,22.26.5a1,1,0,0,1,.87-.5h.21a.93.93,0,0,1,.94.5l22,50.12c.14.43.14.86-.65.86H43.72a1.2,1.2,0,0,1-1-.64L36.88,37.59H9.37L3.61,50.84a1.17,1.17,0,0,1-1,.64h-2C.08,51.48-.13,51.2.08,50.62ZM35.65,34.78l-12.31-29H23.2l-12.53,29Z"/><path class="cls-1" d="M63.88,22a14.57,14.57,0,0,1,9.43,3.46l.29-2a.83.83,0,0,1,.93-.79h.8a.94.94,0,0,1,.86.94V72.15a1,1,0,0,1-.86.94H74a1,1,0,0,1-.94-.94v-23a12.8,12.8,0,0,1-8.49,3c-8.57,0-14.55-6.62-14.55-15.12S55.88,22,63.88,22Zm1,27.22a11.59,11.59,0,0,0,8.2-3.31V29a11.71,11.71,0,0,0-8.93-4c-6.62,0-10.94,5.4-10.94,12.1S57.9,49.18,64.89,49.18Z"/><path class="cls-1" d="M86.7,23.62a1,1,0,0,1,.94-.94h1.29a1,1,0,0,1,.94.94V39.1c0,6.7,3.09,10.08,8.57,10.08a12,12,0,0,0,9.5-5V23.62a.87.87,0,0,1,.94-.94h1.29a1,1,0,0,1,.94.94V50.55a1,1,0,0,1-.94.93h-.86c-.58,0-.79-.43-.87-.86l-.28-2.81a13.14,13.14,0,0,1-9.94,4.39c-8.06,0-11.52-5-11.52-13.1Z"/><path class="cls-1" d="M121.19,6.19a2.45,2.45,0,1,1,4.89,0,2.45,2.45,0,0,1-4.89,0Zm.86,17.43a1,1,0,0,1,.94-.94h1.29a1,1,0,0,1,.94.94V50.55a.84.84,0,0,1-.94.93h-1.44a.84.84,0,0,1-.79-.93Z"/><path class="cls-1" d="M134.29,44.43,136.88,40a1.68,1.68,0,0,1,2.45-.5c.36.22,6.19,4.46,10.87,4.46,3.75,0,6.56-2.44,6.56-5.54,0-3.67-3.1-6.19-9.15-8.64-6.77-2.74-13.54-7.06-13.54-15.55,0-6.41,4.76-13.83,16.21-13.83a25.37,25.37,0,0,1,14.4,4.82,1.79,1.79,0,0,1,.43,2.38l-2.74,4.11a1.89,1.89,0,0,1-2.52.86c-.57-.36-6-4-10-4s-6.33,2.73-6.33,5c0,3.38,2.66,5.69,8.49,8.06,7,2.81,15.05,7,15.05,16.28,0,7.41-6.41,14.25-16.56,14.25-9.07,0-14.4-4.24-15.84-5.61C134,45.94,133.64,45.58,134.29,44.43Z"/><path class="cls-1" d="M182.89,33.27a18.6,18.6,0,0,1,5.26.79c.07-3.67-1.08-5-3.75-5a34.87,34.87,0,0,0-8.06,1.08c-1,.29-1.51-.36-1.66-1.3L174,25.13a1.42,1.42,0,0,1,1-1.8,38.45,38.45,0,0,1,9.8-1.37c9,0,11.08,4.68,11.08,12.53V50.12a1.4,1.4,0,0,1-1.36,1.36H192c-.5,0-.86-.21-1.22-1l-.86-1.95a12.42,12.42,0,0,1-8.79,3.67c-5.76,0-9.72-3.74-9.72-9.86C171.37,37.23,175.55,33.27,182.89,33.27ZM183,46.08a6.65,6.65,0,0,0,5-2.8v-4a11.18,11.18,0,0,0-4-.87c-2.81,0-4.68,1.59-4.68,3.89A3.59,3.59,0,0,0,183,46.08Z"/><path class="cls-1" d="M203.7,24.05a1.37,1.37,0,0,1,1.36-1.37H211a1.37,1.37,0,0,1,1.37,1.37V38.24c0,3.81,1.94,6.19,5.25,6.19,3,0,5.33-2.81,5.76-5.4v-15c0-1.08.44-1.37,1.59-1.37h5.47a1.37,1.37,0,0,1,1.37,1.37V50.12a1.41,1.41,0,0,1-1.37,1.36h-2.66a1.46,1.46,0,0,1-1.37-1.08L225.51,48a12.88,12.88,0,0,1-9.64,4.17c-8.93,0-12.17-6.84-12.17-14.18Zm7.41-11-1.22-2.59a1,1,0,0,1,.43-1.37l11.74-7a1.28,1.28,0,0,1,1.87.21L226,6a1.37,1.37,0,0,1-.43,1.94L213,13.46C211.91,13.9,211.47,13.68,211.11,13Z"/><path class="cls-1" d="M252.51,22a17.15,17.15,0,0,1,6.41,1.3V2.45a1.42,1.42,0,0,1,1.37-1.37h6.12a1.42,1.42,0,0,1,1.37,1.37V50.12a1.41,1.41,0,0,1-1.37,1.36H263.6c-.65,0-1.15-.57-1.37-1.36l-.72-2.24a12.62,12.62,0,0,1-9.43,4.32c-7.85,0-13.82-6.84-13.82-15.12S243.94,22,252.51,22Zm.65,22.47a6.27,6.27,0,0,0,6-4.68V31.39a9.35,9.35,0,0,0-5.62-1.65,7.07,7.07,0,0,0-7,7.34C246.61,41.12,249.34,44.43,253.16,44.43Z"/><path class="cls-1" d="M288.94,22a13.21,13.21,0,0,1,13.47,13.4,18.26,18.26,0,0,1-.14,1.94,1.4,1.4,0,0,1-1.37,1.22H282.46a6.87,6.87,0,0,0,6.92,6.27A10,10,0,0,0,295,43c.72-.43,1.37-.58,1.88,0l2.95,3.38a1.19,1.19,0,0,1-.07,1.87,15.48,15.48,0,0,1-10.73,4c-8.64,0-14.76-6.84-14.76-15.12C274.26,29,280.38,22,288.94,22Zm5,11.52a5.36,5.36,0,0,0-5.25-4.89,5.68,5.68,0,0,0-5.62,4.89Z"/></g></g></svg>