<svg xmlns="http://www.w3.org/2000/svg" width="122" height="71.224" viewBox="0 0 122 71.224"><g transform="translate(-209 -29.388)"><path d="M2991.624,1270.286c-7.252,0-14.5,4.719-14.5,15.22s14.5,23.425,14.5,23.425,14.5-12.926,14.5-23.425S2998.877,1270.286,2991.624,1270.286Zm-.061,1.385a12.984,12.984,0,0,1,10.979,5.5c-4.153-3.739-9.54-1.264-10.918-.238-1.415-1.053-7.058-3.634-11.251.557A12.932,12.932,0,0,1,2991.563,1271.671Z" transform="translate(-2721.347 -1240.898)" fill="#407ec2"/><circle cx="3.565" cy="3.565" r="3.565" transform="translate(266.712 41.204)" fill="#f2f2e7"/><g transform="translate(209 71.127)"><path d="M2861.213,1394.167l8.947-20.218a.4.4,0,0,1,.349-.2h.087a.372.372,0,0,1,.378.2l8.86,20.218c.058.175.058.349-.261.349h-.756a.471.471,0,0,1-.406-.261l-2.353-5.345h-11.1l-2.324,5.345a.473.473,0,0,1-.407.261h-.813C2861.213,1394.516,2861.126,1394.4,2861.213,1394.167Zm14.35-6.391-4.967-11.707h-.058l-5.055,11.707Z" transform="translate(-2861.18 -1373.746)" fill="#646e78"/><path d="M2916.809,1395.708a5.878,5.878,0,0,1,3.8,1.394l.116-.784a.335.335,0,0,1,.378-.319h.319a.38.38,0,0,1,.349.378v19.579a.38.38,0,0,1-.349.378h-.523a.385.385,0,0,1-.377-.378v-9.267a5.173,5.173,0,0,1-3.428,1.22,5.818,5.818,0,0,1-5.868-6.1C2911.231,1398.409,2913.584,1395.708,2916.809,1395.708Zm.406,10.98a4.687,4.687,0,0,0,3.312-1.336v-6.827a4.735,4.735,0,0,0-3.6-1.627c-2.672,0-4.416,2.179-4.416,4.88A4.648,4.648,0,0,0,2917.215,1406.688Z" transform="translate(-2891.039 -1386.848)" fill="#646e78"/><path d="M2947.878,1396.806a.385.385,0,0,1,.377-.378h.523a.385.385,0,0,1,.378.378v6.246c0,2.7,1.249,4.067,3.457,4.067a4.838,4.838,0,0,0,3.834-2.033v-8.279a.351.351,0,0,1,.378-.378h.523a.385.385,0,0,1,.377.378v10.864a.384.384,0,0,1-.377.378H2957c-.232,0-.32-.174-.349-.349l-.116-1.132a5.3,5.3,0,0,1-4.009,1.771c-3.253,0-4.648-2-4.648-5.286Z" transform="translate(-2912.901 -1387.277)" fill="#646e78"/><path d="M2982.365,1378.435a.988.988,0,1,1,1.975,0,.988.988,0,0,1-1.975,0Zm.348,7.03a.385.385,0,0,1,.377-.378h.523a.384.384,0,0,1,.377.378v10.864a.338.338,0,0,1-.377.378h-.581a.338.338,0,0,1-.32-.378Z" transform="translate(-2933.476 -1375.937)" fill="#646e78"/><path d="M2995.266,1391.884l1.046-1.8a.673.673,0,0,1,.987-.2c.145.088,2.5,1.8,4.387,1.8a2.426,2.426,0,0,0,2.644-2.237c0-1.481-1.249-2.5-3.689-3.486-2.731-1.1-5.461-2.847-5.461-6.274,0-2.586,1.917-5.578,6.536-5.578a10.227,10.227,0,0,1,5.81,1.946.719.719,0,0,1,.174.959l-1.1,1.656a.764.764,0,0,1-1.017.348c-.232-.145-2.44-1.6-4.038-1.6a2.313,2.313,0,0,0-2.556,2.034c0,1.365,1.075,2.3,3.428,3.254,2.818,1.133,6.071,2.818,6.071,6.565,0,2.992-2.585,5.752-6.681,5.752a9.345,9.345,0,0,1-6.391-2.266C2995.15,1392.494,2995,1392.349,2995.266,1391.884Z" transform="translate(-2941.089 -1373.961)" fill="#407ec2"/><path d="M3037.2,1400.269a7.47,7.47,0,0,1,2.121.319c.029-1.481-.436-2-1.51-2a13.97,13.97,0,0,0-3.253.436c-.407.116-.61-.145-.668-.523l-.261-1.51a.571.571,0,0,1,.406-.726,15.565,15.565,0,0,1,3.951-.552c3.631,0,4.474,1.888,4.474,5.055v6.3a.572.572,0,0,1-.552.552h-1.045c-.2,0-.349-.087-.494-.406l-.348-.785a5,5,0,0,1-3.544,1.481,3.705,3.705,0,0,1-3.922-3.979C3032.55,1401.867,3034.235,1400.269,3037.2,1400.269Zm.058,5.171a2.684,2.684,0,0,0,2-1.133v-1.6a4.547,4.547,0,0,0-1.627-.349c-1.132,0-1.887.639-1.887,1.569A1.448,1.448,0,0,0,3037.256,1405.439Z" transform="translate(-2963.415 -1386.848)" fill="#407ec2"/><path d="M3064.876,1384.514a.552.552,0,0,1,.552-.552h2.382a.552.552,0,0,1,.552.552v5.723c0,1.54.784,2.5,2.121,2.5a2.565,2.565,0,0,0,2.324-2.179v-6.042c0-.436.175-.552.639-.552h2.208a.551.551,0,0,1,.552.552v10.516a.571.571,0,0,1-.552.552h-1.074a.591.591,0,0,1-.552-.436l-.349-.958a5.2,5.2,0,0,1-3.892,1.685c-3.6,0-4.909-2.759-4.909-5.722Zm2.992-4.444-.494-1.046a.416.416,0,0,1,.174-.552l4.735-2.818a.514.514,0,0,1,.755.087l.843,1.482c.174.377.058.668-.174.784l-5.084,2.237C3068.188,1380.419,3068.013,1380.331,3067.868,1380.07Z" transform="translate(-2982.699 -1374.812)" fill="#407ec2"/><path d="M3105.186,1383.25a6.987,6.987,0,0,1,2.586.523v-8.4a.571.571,0,0,1,.552-.552h2.469a.571.571,0,0,1,.552.552v19.231a.571.571,0,0,1-.552.552h-1.133c-.261,0-.465-.232-.552-.552l-.291-.9a5.1,5.1,0,0,1-3.8,1.743,5.818,5.818,0,0,1-5.578-6.1C3099.435,1385.952,3101.73,1383.25,3105.186,1383.25Zm.262,9.063a2.531,2.531,0,0,0,2.44-1.888v-3.37a3.756,3.756,0,0,0-2.266-.668,2.854,2.854,0,0,0-2.817,2.963A2.771,2.771,0,0,0,3105.448,1392.314Z" transform="translate(-3003.316 -1374.39)" fill="#407ec2"/><path d="M3141.361,1395.708a5.327,5.327,0,0,1,5.432,5.4,7.121,7.121,0,0,1-.058.784.562.562,0,0,1-.552.494h-7.437a2.77,2.77,0,0,0,2.789,2.527,4.04,4.04,0,0,0,2.266-.727c.29-.174.551-.232.755,0l1.191,1.366a.478.478,0,0,1-.029.755,6.253,6.253,0,0,1-4.329,1.6,6.1,6.1,0,0,1-.029-12.2Zm2.033,4.648a2.169,2.169,0,0,0-2.121-1.976,2.288,2.288,0,0,0-2.266,1.976Z" transform="translate(-3024.793 -1386.848)" fill="#407ec2"/></g></g></svg>